<svg t="1740705812803" class="icon" viewBox="0 0 1024 1024" version="1.1" xmlns="http://www.w3.org/2000/svg" p-id="5378" width="200" height="200"><path d="M512 512m-493.717333 0a493.717333 493.717333 0 1 0 987.434666 0 493.717333 493.717333 0 1 0-987.434666 0Z" fill="#FBAEC0" p-id="5379"></path><path d="M554.048 248.661333c49.621333-40.234667 117.653333-38.784 151.786667 3.413334a97.536 97.536 0 0 1 9.130666 101.418666h65.216c13.482667 0 24.384 10.922667 24.384 24.384V512c0 13.461333-10.901333 24.384-24.384 24.384H755.84v243.84c0 13.44-10.922667 24.362667-24.384 24.362667H292.565333a24.384 24.384 0 0 1-24.384-24.384V536.362667H243.84A24.384 24.384 0 0 1 219.434667 512v-134.101333c0-13.461333 10.901333-24.384 24.384-24.384h65.450666a96.554667 96.554667 0 0 1 9.152-101.184c34.133333-42.048 102.037333-43.648 151.765334-2.922667a129.472 129.472 0 0 1 41.941333 60.224 127.765333 127.765333 0 0 1 41.92-60.949333z" fill="#FFFFFF" p-id="5380"></path><path d="M780.181333 353.493333h-65.216a97.536 97.536 0 0 0-9.130666-101.418666c-34.133333-42.197333-102.165333-43.648-151.786667-3.413334a127.765333 127.765333 0 0 0-41.92 60.949334 129.472 129.472 0 0 0-41.941333-60.224c-49.728-40.725333-117.632-39.125333-151.765334 2.922666a96.554667 96.554667 0 0 0-9.152 101.184H243.84c-13.482667 0-24.384 10.922667-24.384 24.384V512c0 13.461333 10.901333 24.384 24.384 24.384h24.362667v243.84c0 13.44 10.922667 24.362667 24.384 24.362667h438.869333c13.44 0 24.384-10.901333 24.384-24.384V536.362667h24.362667c13.482667 0 24.384-10.922667 24.384-24.384v-134.101334c0-13.461333-10.901333-24.384-24.384-24.384z m-202.965333-76.309333c34.986667-28.288 79.850667-27.306667 100.096-2.197333 16.213333 19.989333 14.250667 52.053333-4.522667 78.506666h-128.490666a82.773333 82.773333 0 0 1 32.917333-76.309333z m-230.4-1.834667c20.352-25.109333 65.216-26.090667 100.202667 2.197334a80.213333 80.213333 0 0 1 32.789333 75.946666h-128.362667c-18.88-26.453333-20.714667-58.261333-4.629333-78.144zM256 390.08h243.818667v109.717333H256v-109.717333zM304.768 768V536.362667h195.050667V768h-195.050667z m414.464 0h-182.848V536.362667h182.848V768zM768 499.797333H536.384v-109.717333H768v109.717333z" fill="#FBAEC0" p-id="5381"></path></svg>